<svg width="238" height="161" viewBox="0 0 238 161" fill="none" xmlns="http://www.w3.org/2000/svg">
<path d="M18.056 19.3887H22.537V123.062H18.056V19.3887Z" fill="white"/>
<path d="M48.231 45.3818L69.444 66.5947V19.3887H73.925V123.062H69.444V72.4209L48.231 51.208V123.062H43.749V19.3887H48.231V45.3818Z" fill="white"/>
<path d="M109.927 19.3887C115.006 19.3887 118.591 20.7335 120.682 23.4229C122.773 26.1122 123.819 29.8447 123.819 34.6221V107.971C123.819 112.652 122.773 116.337 120.682 119.025C118.591 121.714 115.006 123.059 109.927 123.059H95.137V19.3887H109.927ZM119.189 33.7275C119.233 31.2958 118.557 28.9052 117.246 26.8564C115.951 24.8651 113.71 23.8688 110.524 23.8682H99.619V118.578H110.524C113.71 118.578 115.951 117.583 117.246 115.593C118.557 113.544 119.233 111.153 119.189 108.721V33.7275Z" fill="white"/>
<path d="M170.426 19.3887V23.8691H147.421V53.1484H164.75V57.6309H147.421V118.578H170.426V123.061H142.94V19.3887H170.426Z" fill="white"/>
<path d="M218.082 19.3887V42.9883L205.682 55.2383L218.082 67.6387V123.061H213.601V69.4307L202.544 58.5273L191.49 69.4326V123.062H187.008V67.6406L199.258 55.2402L187.008 42.9902V19.3906H191.49V41.0518L202.544 52.1064L213.599 41.0518V19.3906L218.082 19.3887Z" fill="white"/>
<path d="M234.103 3H3V137.407H234.103V3Z" stroke="white" stroke-width="6" stroke-miterlimit="10"/>
<path d="M10.771 147.064V157.765H9.991V152.674H2.83499V157.765H2.05499V147.064H2.83499V151.987H9.991V147.064H10.771Z" fill="white"/>
<path d="M30.435 157.064V157.765H23.05V147.064H30.206V147.765H23.829V151.984H29.529V152.674H23.829V157.062L30.435 157.064Z" fill="white"/>
<path d="M50.982 157.064V160.215H50.233V157.768H40.447L40.432 160.215H39.682L39.698 157.064H40.279C40.9817 157.004 41.4733 156.413 41.754 155.292C42.0836 153.744 42.2552 152.166 42.266 150.583L42.373 147.064H49.331V157.064H50.982ZM42.582 154.894C42.5143 155.725 42.1346 156.501 41.519 157.064H48.553V147.765H43.082L42.99 150.64C42.9588 152.066 42.8224 153.488 42.582 154.894Z" fill="white"/>
<path d="M69.725 153.135C70.144 153.634 70.3584 154.273 70.325 154.924C70.3475 155.327 70.2716 155.73 70.1038 156.098C69.9361 156.465 69.6815 156.786 69.362 157.033C68.5132 157.58 67.5102 157.837 66.503 157.767H61.903V147.066H66.215C67.1417 147.011 68.0615 147.256 68.837 147.767C69.1474 148 69.3956 148.306 69.5597 148.658C69.7238 149.01 69.7988 149.397 69.778 149.785C69.7981 150.346 69.6251 150.897 69.288 151.346C68.9368 151.781 68.463 152.101 67.928 152.264C68.6093 152.339 69.2439 152.646 69.725 153.135ZM62.684 152.019H66.201C66.9307 152.066 67.6558 151.873 68.265 151.469C68.4916 151.268 68.6731 151.022 68.7974 150.746C68.9216 150.47 68.9859 150.171 68.9859 149.868C68.9859 149.566 68.9216 149.267 68.7974 148.991C68.6731 148.715 68.4916 148.469 68.265 148.269C67.6559 147.864 66.9308 147.67 66.201 147.718H62.682L62.684 152.019ZM69.549 154.878C69.5743 154.556 69.5175 154.233 69.3839 153.938C69.2503 153.644 69.0442 153.388 68.785 153.195C68.1016 152.794 67.313 152.607 66.522 152.659H62.682V157.109H66.52C68.5393 157.11 69.549 156.367 69.549 154.878Z" fill="white"/>
<path d="M81.798 147.064H82.577V156.453L89.871 147.064H90.559V157.765H89.779V148.392L82.482 157.768H81.794L81.798 147.064Z" fill="white"/>
<path d="M111.263 152.69H108.908V157.767H108.144V152.69H105.789L102.257 157.767H101.324L105.147 152.267L101.615 147.066H102.501L105.774 151.989H108.144V147.066H108.908V151.989H111.263L114.551 147.066H115.422L111.905 152.267L115.728 157.767H114.795L111.263 152.69Z" fill="white"/>
<path d="M126.126 147.064H126.906V156.453L134.2 147.064H134.888V157.765H134.108V148.392L126.814 157.765H126.126V147.064Z" fill="white"/>
<path d="M157.289 157.767L157.274 148.607L152.793 156.345H152.411L147.931 148.639V157.767H147.166V147.066H147.824L152.61 155.339L157.396 147.066H158.038L158.053 157.767H157.289Z" fill="white"/>
<path d="M172.075 157.134C171.246 156.677 170.556 156.002 170.08 155.184C169.603 154.339 169.353 153.386 169.353 152.416C169.353 151.446 169.603 150.493 170.08 149.648C170.556 148.83 171.245 148.156 172.075 147.699C172.95 147.234 173.926 146.99 174.918 146.988C175.909 146.987 176.886 147.228 177.763 147.691C178.594 148.144 179.286 148.816 179.763 149.634C180.239 150.484 180.488 151.442 180.488 152.416C180.488 153.39 180.239 154.348 179.763 155.198C179.286 156.016 178.594 156.687 177.763 157.14C176.886 157.603 175.91 157.845 174.918 157.844C173.927 157.843 172.95 157.599 172.075 157.134ZM177.35 156.514C178.064 156.117 178.656 155.532 179.063 154.824C179.474 154.088 179.69 153.26 179.69 152.417C179.69 151.574 179.474 150.745 179.063 150.009C178.656 149.301 178.063 148.717 177.35 148.319C176.601 147.918 175.765 147.708 174.915 147.708C174.065 147.708 173.229 147.918 172.48 148.319C171.763 148.715 171.169 149.3 170.76 150.009C170.349 150.745 170.133 151.574 170.133 152.417C170.133 153.26 170.349 154.088 170.76 154.824C171.168 155.534 171.763 156.119 172.48 156.514C173.229 156.916 174.065 157.126 174.915 157.126C175.765 157.126 176.601 156.916 177.35 156.514Z" fill="white"/>
<path d="M193.551 157.141C192.724 156.687 192.037 156.016 191.564 155.2C191.087 154.35 190.837 153.392 190.837 152.418C190.837 151.443 191.087 150.485 191.564 149.635C192.037 148.819 192.724 148.148 193.551 147.693C194.42 147.218 195.398 146.977 196.388 146.993C197.119 146.985 197.844 147.112 198.529 147.367C199.162 147.604 199.732 147.983 200.195 148.475L199.706 148.975C199.272 148.553 198.757 148.222 198.192 148.004C197.627 147.786 197.023 147.684 196.418 147.706C195.564 147.695 194.721 147.906 193.972 148.317C193.252 148.711 192.654 149.296 192.244 150.007C191.833 150.743 191.617 151.571 191.617 152.414C191.617 153.257 191.833 154.086 192.244 154.822C192.654 155.533 193.252 156.118 193.972 156.511C194.721 156.924 195.563 157.135 196.418 157.124C197.024 157.143 197.628 157.039 198.193 156.818C198.759 156.597 199.273 156.265 199.706 155.84L200.195 156.34C199.729 156.834 199.157 157.216 198.521 157.456C197.84 157.715 197.117 157.845 196.388 157.839C195.398 157.855 194.421 157.615 193.551 157.141Z" fill="white"/>
<path d="M217.719 147.767H213.865V157.767H213.085V147.767H209.232V147.066H217.719V147.767Z" fill="white"/>
<path d="M235.403 151.818C235.743 152.134 236.009 152.522 236.179 152.953C236.35 153.385 236.422 153.849 236.389 154.312C236.421 154.792 236.344 155.274 236.162 155.721C235.981 156.167 235.7 156.566 235.341 156.888C234.47 157.528 233.4 157.839 232.321 157.767H228.221V147.066H229.001V150.98H232.518C233.549 150.907 234.572 151.204 235.403 151.818ZM234.768 156.406C235.053 156.144 235.275 155.821 235.418 155.461C235.561 155.101 235.621 154.713 235.594 154.326C235.594 152.532 234.508 151.636 232.337 151.637H229.003V157.11H232.337C233.205 157.173 234.067 156.923 234.768 156.406Z" fill="white"/>
<path d="M200.846 69.3125H196.354V73.8045H200.846V69.3125Z" fill="white"/>
<path d="M208.555 69.3125H204.063V73.8045H208.555V69.3125Z" fill="white"/>
<path d="M200.846 75.6855H196.354V80.1775H200.846V75.6855Z" fill="white"/>
<path d="M208.555 75.6855H204.063V80.1775H208.555V75.6855Z" fill="white"/>
</svg>
