<svg width="191" height="129" viewBox="0 0 191 129" fill="none" xmlns="http://www.w3.org/2000/svg">
<path d="M14.59 15.6602H18.19V98.9132H14.59V15.6602Z" fill="black"/>
<path d="M38.8219 36.5332L55.8569 53.5682V15.6602H59.4569V98.9132H55.8569V58.2462L38.8219 41.2112V98.9112H35.2219V15.6602H38.8219V36.5332Z" fill="black"/>
<path d="M88.366 15.6602C92.4446 15.6602 95.3237 16.7395 97.003 18.8982C98.6823 21.0568 99.5223 24.0568 99.523 27.8982V86.7982C99.523 90.5582 98.683 93.5172 97.003 95.6752C95.323 97.8332 92.444 98.9128 88.366 98.9142H76.49V15.6602H88.366ZM95.804 27.1762C95.8397 25.2232 95.297 23.3033 94.244 21.6582C93.204 20.0582 91.404 19.2582 88.844 19.2582H80.089V95.3152H88.846C91.4053 95.3152 93.2053 94.5152 94.246 92.9152C95.299 91.27 95.8417 89.3501 95.806 87.3972L95.804 27.1762Z" fill="black"/>
<path d="M136.95 15.6602V19.2602H118.476V42.7712H132.391V46.3712H118.476V95.3162H136.95V98.9162H114.877V15.6602H136.95Z" fill="black"/>
<path d="M175.218 15.6602V34.6142L165.261 44.4502L175.218 54.4072V98.9132H171.618V55.8472L162.74 47.0902L153.863 55.8472V98.9132H150.263V54.4072L160.1 44.4502L150.263 34.6142V15.6602H153.863V33.0542L162.74 41.9312L171.618 33.0542V15.6602H175.218Z" fill="#E47700"/>
<path d="M188.084 2.5H2.5V110.434H188.084V2.5Z" stroke="black" stroke-width="5" stroke-miterlimit="10"/>
<path d="M8.74094 118.19V126.79H8.11394V122.701H2.36794V126.784H1.74194V118.184H2.36794V122.138H8.11394V118.184L8.74094 118.19Z" fill="black"/>
<path d="M24.532 126.221V126.786H18.599V118.186H24.346V118.751H19.227V122.14H23.807V122.693H19.227V126.217L24.532 126.221Z" fill="black"/>
<path d="M41.0349 126.221V128.75H40.4349V126.784H32.5749L32.5619 128.748H31.9619L31.9739 126.219H32.4409C33.0049 126.17 33.3999 125.695 33.6259 124.795C33.8906 123.551 34.0283 122.284 34.0369 121.013L34.1229 118.188H39.7089V126.219L41.0349 126.221ZM34.2879 124.477C34.2333 125.145 33.9283 125.768 33.4339 126.221H39.0829V118.755H34.6829L34.6089 121.064C34.5855 122.207 34.4782 123.348 34.2879 124.477Z" fill="black"/>
<path d="M56.0829 123.065C56.4203 123.465 56.5936 123.979 56.5679 124.502C56.5862 124.826 56.5253 125.149 56.3904 125.445C56.2556 125.74 56.0508 125.998 55.7939 126.197C55.1113 126.637 54.3042 126.844 53.4939 126.786H49.7939V118.186H53.2569C54.0015 118.142 54.7402 118.34 55.3629 118.751C55.6122 118.938 55.8114 119.184 55.9431 119.467C56.0747 119.749 56.1348 120.06 56.1179 120.372C56.1338 120.822 55.9951 121.264 55.7249 121.625C55.4429 121.974 55.062 122.231 54.6319 122.361C55.1823 122.421 55.695 122.67 56.0829 123.065ZM50.4279 122.165H53.2529C53.8388 122.203 54.4209 122.047 54.9099 121.723C55.0914 121.562 55.2366 121.364 55.336 121.143C55.4355 120.922 55.4869 120.682 55.4869 120.44C55.4869 120.197 55.4355 119.957 55.336 119.736C55.2366 119.515 55.0914 119.318 54.9099 119.157C54.4209 118.832 53.8388 118.676 53.2529 118.715H50.4279V122.165ZM55.9419 124.465C55.9621 124.206 55.9163 123.946 55.8089 123.71C55.7016 123.474 55.5361 123.269 55.3279 123.114C54.7787 122.792 54.1453 122.642 53.5099 122.685H50.4279V126.258H53.5099C55.1306 126.258 55.9413 125.66 55.9419 124.465Z" fill="black"/>
<path d="M65.778 118.189H66.404V125.729L72.261 118.189H72.8139V126.789H72.187V119.262L66.33 126.789H65.778V118.189Z" fill="black"/>
<path d="M89.4389 122.709H87.5479V126.784H86.9349V122.707H85.0429L82.2069 126.784H81.4579L84.5279 122.363L81.6909 118.188H82.4029L85.0309 122.142H86.9309V118.188H87.5439V122.142H89.4349L92.0749 118.188H92.7749L89.9509 122.363L93.0209 126.784H92.2719L89.4389 122.709Z" fill="black"/>
<path d="M101.375 118.189H102.001V125.729L107.858 118.189H108.411V126.789H107.785V119.262L101.927 126.789H101.375V118.189Z" fill="black"/>
<path d="M126.399 126.784L126.387 119.429L122.787 125.642H122.48L118.88 119.453V126.784H118.266V118.184H118.794L122.637 124.827L126.481 118.184H126.996L127.009 126.784H126.399Z" fill="black"/>
<path d="M138.273 126.276C137.608 125.909 137.055 125.368 136.673 124.711C136.291 124.033 136.09 123.267 136.09 122.488C136.09 121.71 136.291 120.944 136.673 120.266C137.055 119.609 137.608 119.068 138.273 118.7C138.976 118.326 139.76 118.13 140.556 118.129C141.352 118.128 142.137 118.322 142.841 118.694C143.507 119.058 144.06 119.597 144.441 120.253C144.823 120.936 145.024 121.705 145.024 122.488C145.024 123.271 144.823 124.04 144.441 124.723C144.06 125.379 143.507 125.918 142.841 126.282C142.137 126.654 141.352 126.848 140.556 126.847C139.76 126.846 138.976 126.65 138.273 126.276ZM142.51 125.776C143.083 125.457 143.558 124.987 143.885 124.419C144.215 123.828 144.389 123.162 144.389 122.485C144.389 121.808 144.215 121.142 143.885 120.551C143.558 119.983 143.083 119.514 142.51 119.194C141.909 118.872 141.237 118.703 140.554 118.703C139.872 118.703 139.2 118.872 138.599 119.194C138.024 119.512 137.546 119.981 137.218 120.551C136.887 121.142 136.714 121.808 136.714 122.485C136.714 123.162 136.887 123.828 137.218 124.419C137.545 124.99 138.023 125.46 138.599 125.779C139.2 126.101 139.872 126.27 140.554 126.27C141.237 126.27 141.909 126.101 142.51 125.779V125.776Z" fill="black"/>
<path d="M155.52 126.282C154.855 125.918 154.301 125.379 153.92 124.723C153.537 124.041 153.336 123.271 153.336 122.488C153.336 121.706 153.537 120.936 153.92 120.253C154.301 119.598 154.855 119.059 155.52 118.694C156.217 118.312 157.002 118.117 157.798 118.129C158.384 118.123 158.967 118.224 159.517 118.429C160.025 118.62 160.483 118.924 160.855 119.319L160.462 119.725C160.114 119.386 159.7 119.12 159.247 118.945C158.793 118.769 158.308 118.688 157.822 118.705C157.136 118.697 156.459 118.866 155.858 119.196C155.279 119.513 154.799 119.982 154.47 120.553C154.14 121.145 153.967 121.81 153.967 122.487C153.967 123.164 154.14 123.83 154.47 124.421C154.799 124.993 155.279 125.462 155.858 125.778C156.459 126.109 157.136 126.278 157.822 126.269C158.309 126.285 158.794 126.202 159.248 126.025C159.701 125.847 160.115 125.58 160.462 125.238L160.855 125.638C160.481 126.037 160.022 126.345 159.511 126.538C158.964 126.747 158.383 126.851 157.798 126.845C157.003 126.858 156.218 126.664 155.52 126.282Z" fill="black"/>
<path d="M174.927 118.755H171.833V126.784H171.206V118.753H168.112V118.188H174.927V118.755Z" fill="black"/>
<path d="M189.128 122.009C189.401 122.261 189.614 122.572 189.751 122.919C189.888 123.265 189.946 123.637 189.92 124.009C189.946 124.395 189.884 124.782 189.738 125.14C189.592 125.499 189.367 125.819 189.079 126.078C188.379 126.592 187.52 126.842 186.654 126.784H183.363V118.184H183.989V121.328H186.813C187.641 121.271 188.462 121.513 189.128 122.009ZM188.619 125.693C188.848 125.482 189.026 125.222 189.141 124.933C189.256 124.644 189.304 124.333 189.282 124.023C189.282 122.582 188.41 121.862 186.666 121.862H183.989V126.262H186.666C187.364 126.31 188.056 126.109 188.619 125.693Z" fill="black"/>
<path d="M161.377 55.752H157.77V59.359H161.377V55.752Z" fill="#E47700"/>
<path d="M167.568 55.752H163.961V59.359H167.568V55.752Z" fill="#E47700"/>
<path d="M161.377 60.8691H157.77V64.4761H161.377V60.8691Z" fill="#E47700"/>
<path d="M167.568 60.8691H163.961V64.4761H167.568V60.8691Z" fill="#E47700"/>
</svg>
